PathFileType	4	(X/Y/Z)	Patient4_TMGait_0pt3_01_left_08.trc.trc
DataRate	CameraRate	NumFrames	NumMarkers	Units	OrigDataRate	OrigDataStartFrame	OrigNumFrames
52.238805970149	52.238805970149	4	33	mm	52.238805970149	18	       141
Frame#	Time	Sacral			L.Shoulder			Chest			R.Shoulder			Neck			R.ASIS			L.ASIS			R.Thigh.Superior			R.Thigh.Lateral			R.Thigh.Inferior			R.Patella			L.Thigh.Superior			L.Thigh.Lateral			L.Thigh.Inferior			L.Patella			L.Shank.Superior			L.Shank.Lateral			L.Shank.Inferior			R.Shank.Superior			R.Shank.Lateral			R.Shank.Inferior			R.Heel			R.Midfoot.Superior			R.Midfoot.Lateral			R.Toe			L.Heel			L.Midfoot.Lateral			L.Midfoot.Superior			L.Toe			L.Elbow			L.Wrist			R.Elbow			R.Wrist			
		X1	Y1	Z1	X2	Y2	Z2	X3	Y3	Z3	X4	Y4	Z4	X5	Y5	Z5	X6	Y6	Z6	X7	Y7	Z7	X8	Y8	Z8	X9	Y9	Z9	X10	Y10	Z10	X11	Y11	Z11	X12	Y12	Z12	X13	Y13	Z13	X14	Y14	Z14	X15	Y15	Z15	X16	Y16	Z16	X17	Y17	Z17	X18	Y18	Z18	X19	Y19	Z19	X20	Y20	Z20	X21	Y21	Z21	X22	Y22	Z22	X23	Y23	Z23	X24	Y24	Z24	X25	Y25	Z25	X26	Y26	Z26	X27	Y27	Z27	X28	Y28	Z28	X29	Y29	Z29	X30	Y30	Z30	X31	Y31	Z31	X32	Y32	Z32	X33	Y33	Z33	

18	14.835428571429	740.776915712969	1007.240156352418	609.689589055419	902.502262947905	1431.812623305368	403.449954391378	1028.488007205067	1361.496062103832	546.043299356220	977.610139483707	1440.202414454538	729.904441935427	911.046914832981	1493.157045808815	564.389669808811	981.262656346664	938.056947995183	695.548513231578	934.413955993379	963.408906056336	424.853564427228	1000.732232424427	733.387889986276	658.474431387117	917.380223432548	625.819405516963	721.649852932413	981.717367713759	572.552960092398	633.195552237311	974.498145042358	484.721829489544	636.625962934658	1016.383934994472	779.353886786191	455.185962171870	968.463927542220	654.565007845276	372.152982856956	1067.771307135144	592.570400869141	434.952850055222	1093.204700549899	523.330077403354	425.491606340250	1066.517088377804	449.583695561456	410.323696795783	983.438899066235	332.618932270189	352.762734950622	1056.703035438080	219.651478111392	400.993435070783	939.919123744744	397.069866984201	642.985578821109	863.355340416549	295.717465817531	702.688319883209	895.424658693907	201.650387516718	634.622057155247	751.326990193505	42.398287904391	598.098460145338	921.787603200442	96.772043549394	639.881597426883	832.098108968038	36.367834088472	676.242408813576	1040.452400109027	46.019693426024	671.646755347051	952.650510528606	46.227212771166	431.375754519696	1023.646959675276	52.398829613622	348.794676020496	1101.142535625926	123.199782337228	372.742771044311	1230.721409370391	87.000712350794	337.755790053969	761.791427053584	1102.896475156827	318.586087278800	737.243155053948	844.705464553920	342.790588845194	1099.300914235908	1124.247253227854	858.384115599569	1350.805107734638	1124.988881693288	815.249579318914	
19	14.854571428571	740.311445060941	1007.960092617218	609.052461701331	900.375589076237	1431.555061126807	400.382183258484	1027.712928089330	1361.506478197022	541.994045875129	978.527845368336	1441.006413906540	725.941048788787	910.198531248148	1493.261030982500	561.033445519107	981.067410113381	938.329080346439	693.451789503987	932.553986049700	962.861671487330	422.920015138420	997.530941056417	732.837002573812	656.901812407041	913.094259316781	626.367864849390	721.021716016720	976.007431835045	572.086024243842	632.410944582976	967.650670697871	484.805155539909	636.099810335021	1013.086613263658	777.455838651468	451.921068777302	962.283522000170	652.765717888177	370.339288759381	1062.100143013065	590.334506575580	431.824043002976	1086.902542000973	522.015653930432	423.257501901854	1061.442796460624	448.630658816408	408.629744805006	980.432480208401	329.960755361097	351.675099252051	1055.849618044703	218.517134474134	400.222435332152	933.425019978516	397.345614834957	642.709308391698	857.125263336863	295.963618550770	702.602276765386	889.219534620997	201.810841850058	634.563844014790	745.511410985293	42.415143764221	598.140511726669	915.932275895284	96.701637679738	639.881291165376	826.290623729539	36.351943975631	676.279295148363	1034.660761144266	45.914554950391	671.636979821846	954.381914920409	44.540461144357	431.395187498780	1025.373376916838	50.541737464061	348.799066495648	1102.434537065610	121.819021116411	372.345123000962	1232.259558485876	86.038038680254	337.695847896632	757.060226649836	1103.579723776648	317.746208496245	734.253599922759	845.134895883135	343.240851022907	1107.716362639990	1128.809277465476	853.496695250897	1357.958351888696	1140.590107728415	806.350066876158	
20	14.873714285714	740.103136323695	1008.208109252461	608.087976954793	898.456290637275	1430.889755545991	396.981933246525	1026.964118557802	1361.270582526817	537.816966865561	979.131887244787	1441.517472458126	721.757199152026	909.345807154687	1493.063230205551	557.340584589031	981.166297143583	938.434407707255	691.287827343230	931.114396799478	961.902020268333	420.912976686054	994.998855721803	732.204492903265	655.300421277871	909.535937020848	626.711440213809	720.256732434235	971.126217715590	571.499532258869	631.569701681980	961.668571503057	484.675383834433	635.485304519945	1009.991213604446	774.836861471828	448.416756768256	955.963644749138	650.362842036317	368.609373320704	1056.338108939952	587.473848647501	428.696109923575	1080.247906478965	519.870764307732	421.061598675052	1055.844915865358	446.929433096888	406.890024167574	976.319819978737	326.889787503071	350.842099094064	1053.611437626131	216.750840207148	399.470425456213	927.615358379427	397.411351357960	642.306964035578	851.403980292763	296.137732926758	702.432908173362	883.318106617401	201.845992660642	634.442067390626	739.709044407502	42.438763174441	598.180229550080	910.109759894335	96.625758428203	639.866527681269	820.494110378451	36.341788290107	676.313965455707	1028.885958693297	45.784107959725	671.628309127932	954.075213407643	42.863435920518	431.683460115972	1024.865577544232	48.396073416786	348.885354414731	1101.917658911548	119.647483719506	371.906497194862	1231.702348693137	83.617625059690	337.218377060815	753.527992353380	1103.359041234512	316.625603927157	733.195453932060	844.522332180767	343.059902078067	1115.427263108825	1132.972287777228	848.307041670600	1364.098769556799	1154.693777882918	797.641431181356	
21	14.892857142857	740.131099960799	1008.052253942469	606.812550823970	896.729394167927	1429.871901291017	393.254524347541	1026.247777143763	1360.839582943875	533.499611496956	979.461308770218	1441.784357939167	717.358359789624	908.502705186899	1492.614593064057	553.317869468209	981.557512125691	938.397805421022	689.020836902893	930.057412174509	960.625725688077	418.820031218648	993.155423162865	731.499075479782	653.628872128738	906.718939374501	626.855153799117	719.309656180324	967.087133714937	570.799405131260	630.616259174345	956.564204827607	484.333957978849	634.729486144437	1007.148468295104	771.698838074395	444.727248293470	949.661345741027	647.545290089896	366.968019393149	1050.650082937273	584.219075527427	425.576989428464	1073.449129422754	517.124973626778	418.894783137595	1049.958159368034	444.655631910635	405.101992699306	971.372969113826	323.546815869716	350.206204490471	1050.252633879848	214.484865027274	398.733970266323	922.491321576134	397.275797865702	641.744969567898	846.194006568820	296.255811466262	702.170105409499	877.721330827943	201.766110782901	634.247395598559	733.921199135242	42.469996251657	598.220447143159	904.322279207190	96.550003104609	639.838845304663	814.710443473049	36.335887287662	676.345340114737	1023.128180401578	45.631974245120	671.620195788968	951.994064803221	41.269086130648	432.181494312522	1022.438804455490	46.065300984066	349.037352476554	1099.864437478808	116.831118735869	371.470703489954	1229.370556668173	79.944048552455	336.460220452655	751.173194968986	1102.280761585889	315.207277097498	734.002185504027	842.962188940389	342.175274858246	1122.323836108812	1136.679147143398	842.878321939032	1369.263795927514	1167.134985620024	789.175371826908	
